<mxfile host="app.diagrams.net" modified="2020-11-29T09:30:21.862Z" agent="5.0 (Macintosh; Intel Mac OS X 10_15_6) AppleWebKit/537.36 (KHTML, like Gecko) Chrome/86.0.4240.111 Safari/537.36" etag="yCr6R1GlF08xOX-EQ8UI" version="13.10.0" type="github">
  <diagram id="uL1534gnUZp0G3NvnVyc" name="Page-1">
    <mxGraphModel dx="1773" dy="614" grid="1" gridSize="10" guides="1" tooltips="1" connect="1" arrows="1" fold="1" page="1" pageScale="1" pageWidth="827" pageHeight="1169" math="0" shadow="0">
      <root>
        <mxCell id="0" />
        <mxCell id="1" parent="0" />
        <mxCell id="OM2rvioL-oCdVtaW39Cs-11" value="" style="rounded=1;whiteSpace=wrap;html=1;" vertex="1" parent="1">
          <mxGeometry x="-320" y="230" width="160" height="480" as="geometry" />
        </mxCell>
        <mxCell id="OM2rvioL-oCdVtaW39Cs-4" value="" style="edgeStyle=orthogonalEdgeStyle;rounded=0;orthogonalLoop=1;jettySize=auto;html=1;" edge="1" parent="1" source="OM2rvioL-oCdVtaW39Cs-1" target="OM2rvioL-oCdVtaW39Cs-3">
          <mxGeometry relative="1" as="geometry">
            <Array as="points">
              <mxPoint x="200" y="370" />
            </Array>
          </mxGeometry>
        </mxCell>
        <mxCell id="OM2rvioL-oCdVtaW39Cs-9" style="edgeStyle=orthogonalEdgeStyle;rounded=0;orthogonalLoop=1;jettySize=auto;html=1;entryX=0.5;entryY=0;entryDx=0;entryDy=0;" edge="1" parent="1" source="OM2rvioL-oCdVtaW39Cs-1" target="OM2rvioL-oCdVtaW39Cs-10">
          <mxGeometry relative="1" as="geometry">
            <mxPoint x="60" y="340" as="targetPoint" />
            <Array as="points">
              <mxPoint x="200" y="310" />
              <mxPoint x="60" y="310" />
            </Array>
          </mxGeometry>
        </mxCell>
        <mxCell id="OM2rvioL-oCdVtaW39Cs-12" style="edgeStyle=orthogonalEdgeStyle;rounded=0;orthogonalLoop=1;jettySize=auto;html=1;entryX=0.425;entryY=-0.05;entryDx=0;entryDy=0;entryPerimeter=0;" edge="1" parent="1" source="OM2rvioL-oCdVtaW39Cs-1" target="OM2rvioL-oCdVtaW39Cs-13">
          <mxGeometry relative="1" as="geometry">
            <mxPoint x="320" y="340" as="targetPoint" />
            <Array as="points">
              <mxPoint x="200" y="310" />
              <mxPoint x="320" y="310" />
            </Array>
          </mxGeometry>
        </mxCell>
        <mxCell id="OM2rvioL-oCdVtaW39Cs-30" style="edgeStyle=orthogonalEdgeStyle;rounded=0;orthogonalLoop=1;jettySize=auto;html=1;entryX=0.45;entryY=-0.017;entryDx=0;entryDy=0;entryPerimeter=0;" edge="1" parent="1" source="OM2rvioL-oCdVtaW39Cs-1" target="OM2rvioL-oCdVtaW39Cs-29">
          <mxGeometry relative="1" as="geometry">
            <Array as="points">
              <mxPoint x="200" y="310" />
              <mxPoint x="464" y="310" />
            </Array>
          </mxGeometry>
        </mxCell>
        <mxCell id="OM2rvioL-oCdVtaW39Cs-1" value="assisantdesk" style="rounded=0;whiteSpace=wrap;html=1;" vertex="1" parent="1">
          <mxGeometry x="140" y="210" width="120" height="60" as="geometry" />
        </mxCell>
        <mxCell id="OM2rvioL-oCdVtaW39Cs-14" style="edgeStyle=orthogonalEdgeStyle;rounded=0;orthogonalLoop=1;jettySize=auto;html=1;entryX=0.5;entryY=1;entryDx=0;entryDy=0;" edge="1" parent="1" source="OM2rvioL-oCdVtaW39Cs-2" target="OM2rvioL-oCdVtaW39Cs-10">
          <mxGeometry relative="1" as="geometry" />
        </mxCell>
        <mxCell id="OM2rvioL-oCdVtaW39Cs-15" style="edgeStyle=orthogonalEdgeStyle;rounded=0;orthogonalLoop=1;jettySize=auto;html=1;entryX=0.5;entryY=1;entryDx=0;entryDy=0;" edge="1" parent="1" source="OM2rvioL-oCdVtaW39Cs-2" target="OM2rvioL-oCdVtaW39Cs-3">
          <mxGeometry relative="1" as="geometry" />
        </mxCell>
        <mxCell id="OM2rvioL-oCdVtaW39Cs-17" style="edgeStyle=orthogonalEdgeStyle;rounded=0;orthogonalLoop=1;jettySize=auto;html=1;entryX=1;entryY=0.5;entryDx=0;entryDy=0;" edge="1" parent="1" source="OM2rvioL-oCdVtaW39Cs-2" target="OM2rvioL-oCdVtaW39Cs-16">
          <mxGeometry relative="1" as="geometry" />
        </mxCell>
        <mxCell id="OM2rvioL-oCdVtaW39Cs-19" style="edgeStyle=orthogonalEdgeStyle;rounded=0;orthogonalLoop=1;jettySize=auto;html=1;entryX=1;entryY=0.5;entryDx=0;entryDy=0;" edge="1" parent="1" source="OM2rvioL-oCdVtaW39Cs-2" target="OM2rvioL-oCdVtaW39Cs-18">
          <mxGeometry relative="1" as="geometry" />
        </mxCell>
        <mxCell id="OM2rvioL-oCdVtaW39Cs-21" style="edgeStyle=orthogonalEdgeStyle;rounded=0;orthogonalLoop=1;jettySize=auto;html=1;entryX=1;entryY=0.5;entryDx=0;entryDy=0;" edge="1" parent="1" source="OM2rvioL-oCdVtaW39Cs-2" target="OM2rvioL-oCdVtaW39Cs-20">
          <mxGeometry relative="1" as="geometry" />
        </mxCell>
        <mxCell id="OM2rvioL-oCdVtaW39Cs-23" style="edgeStyle=orthogonalEdgeStyle;rounded=0;orthogonalLoop=1;jettySize=auto;html=1;entryX=1;entryY=0.5;entryDx=0;entryDy=0;" edge="1" parent="1" source="OM2rvioL-oCdVtaW39Cs-2" target="OM2rvioL-oCdVtaW39Cs-22">
          <mxGeometry relative="1" as="geometry" />
        </mxCell>
        <mxCell id="OM2rvioL-oCdVtaW39Cs-2" value="&lt;span style=&quot;color: rgb(96 , 98 , 102) ; font-family: &amp;#34;helvetica neue&amp;#34; , &amp;#34;helvetica&amp;#34; , &amp;#34;pingfang sc&amp;#34; , &amp;#34;hiragino sans gb&amp;#34; , &amp;#34;microsoft yahei&amp;#34; , &amp;#34;arial&amp;#34; , sans-serif ; font-size: 14px ; background-color: rgb(245 , 247 , 250)&quot;&gt;pcassistant&lt;/span&gt;" style="rounded=0;whiteSpace=wrap;html=1;" vertex="1" parent="1">
          <mxGeometry x="60" y="525" width="120" height="60" as="geometry" />
        </mxCell>
        <mxCell id="OM2rvioL-oCdVtaW39Cs-3" value="userprofile" style="whiteSpace=wrap;html=1;rounded=0;" vertex="1" parent="1">
          <mxGeometry x="140" y="350" width="120" height="60" as="geometry" />
        </mxCell>
        <mxCell id="OM2rvioL-oCdVtaW39Cs-10" value="bzr-assignclass/go" style="rounded=0;whiteSpace=wrap;html=1;" vertex="1" parent="1">
          <mxGeometry y="350" width="120" height="60" as="geometry" />
        </mxCell>
        <mxCell id="OM2rvioL-oCdVtaW39Cs-13" value="assisantdataware" style="rounded=0;whiteSpace=wrap;html=1;" vertex="1" parent="1">
          <mxGeometry x="270" y="350" width="120" height="60" as="geometry" />
        </mxCell>
        <mxCell id="OM2rvioL-oCdVtaW39Cs-16" value="lpc/insighe" style="rounded=1;whiteSpace=wrap;html=1;" vertex="1" parent="1">
          <mxGeometry x="-300" y="525" width="120" height="60" as="geometry" />
        </mxCell>
        <mxCell id="OM2rvioL-oCdVtaW39Cs-18" value="edu/examcore" style="rounded=1;whiteSpace=wrap;html=1;" vertex="1" parent="1">
          <mxGeometry x="-300" y="450" width="120" height="60" as="geometry" />
        </mxCell>
        <mxCell id="OM2rvioL-oCdVtaW39Cs-20" value="zbtiku" style="rounded=0;whiteSpace=wrap;html=1;" vertex="1" parent="1">
          <mxGeometry x="-300" y="370" width="120" height="60" as="geometry" />
        </mxCell>
        <mxCell id="OM2rvioL-oCdVtaW39Cs-22" value="sell/coursesearch" style="rounded=1;whiteSpace=wrap;html=1;" vertex="1" parent="1">
          <mxGeometry x="-300" y="610" width="120" height="60" as="geometry" />
        </mxCell>
        <mxCell id="OM2rvioL-oCdVtaW39Cs-25" value="班主任（一线、排灌班、批改）" style="rounded=1;whiteSpace=wrap;html=1;" vertex="1" parent="1">
          <mxGeometry x="-90" y="900" width="120" height="60" as="geometry" />
        </mxCell>
        <mxCell id="OM2rvioL-oCdVtaW39Cs-26" value="客服&amp;amp;质检" style="rounded=1;whiteSpace=wrap;html=1;" vertex="1" parent="1">
          <mxGeometry x="110" y="900" width="120" height="60" as="geometry" />
        </mxCell>
        <mxCell id="OM2rvioL-oCdVtaW39Cs-27" value="lpc" style="rounded=1;whiteSpace=wrap;html=1;" vertex="1" parent="1">
          <mxGeometry x="-240" y="900" width="120" height="60" as="geometry" />
        </mxCell>
        <mxCell id="OM2rvioL-oCdVtaW39Cs-28" value="人管，数据后台" style="rounded=1;whiteSpace=wrap;html=1;" vertex="1" parent="1">
          <mxGeometry x="270" y="900" width="120" height="60" as="geometry" />
        </mxCell>
        <mxCell id="OM2rvioL-oCdVtaW39Cs-29" value="assigncheck" style="rounded=0;whiteSpace=wrap;html=1;" vertex="1" parent="1">
          <mxGeometry x="410" y="350" width="120" height="60" as="geometry" />
        </mxCell>
      </root>
    </mxGraphModel>
  </diagram>
</mxfile>
